<?xml version="1.0" encoding="UTF-8"?>
<svg version="1.1" xmlns="http://www.w3.org/2000/svg" width="571" height="571">
<path d="M0 0 C1.18728699 -0.00944138 1.18728699 -0.00944138 2.39855957 -0.01907349 C3.09249817 -0.02539291 3.78643677 -0.03171234 4.50140381 -0.03822327 C9.04221917 0.13204848 12.37777115 0.98018657 15.65148926 4.16036987 C17.3546379 6.861916 18.7668759 9.60631597 20.14367676 12.48458862 C21.87142683 15.82251997 23.82295756 19.01436667 25.77648926 22.22286987 C28.76444963 27.16359174 31.71104686 32.11889681 34.52648926 37.16036987 C35.3792041 38.68017456 35.3792041 38.68017456 36.24914551 40.23068237 C37.49486084 43.10664252 37.73020645 44.94271908 37.46398926 48.03536987 C38.04664551 48.06501831 38.62930176 48.09466675 39.22961426 48.12521362 C42.6595969 49.52239187 43.6595596 52.4323039 45.21398926 55.59786987 C45.52980957 56.21339722 45.84562988 56.82892456 46.17102051 57.46310425 C46.94760814 58.98098008 47.70744487 60.50740522 48.46398926 62.03536987 C49.00023926 60.90099487 49.53648926 59.76661987 50.08898926 58.59786987 C51.59476383 55.58107413 53.23425604 52.80708028 55.15148926 50.03536987 C58.35875766 45.34102213 61.09924323 40.44039717 63.85852051 35.47628784 C67.90080125 28.21534106 72.11348549 21.06021243 76.35656738 13.91525269 C77.36032875 12.21133678 78.3430916 10.49509393 79.32336426 8.77755737 C79.84414551 7.8726355 80.36492676 6.96771362 80.90148926 6.03536987 C81.54924316 4.89068237 81.54924316 4.89068237 82.21008301 3.72286987 C83.46398926 2.03536987 83.46398926 2.03536987 86.46398926 1.03536987 C88.27719191 0.94124672 90.093659 0.90465916 91.90930176 0.90255737 C92.98695801 0.90126831 94.06461426 0.89997925 95.17492676 0.89865112 C96.8648877 0.9044519 96.8648877 0.9044519 98.58898926 0.91036987 C99.69242676 0.90650269 100.79586426 0.9026355 101.93273926 0.89865112 C104.10559149 0.90123171 106.2785601 0.9275661 108.45080566 0.97897339 C111.39440076 1.07226861 111.39440076 1.07226861 114.0513916 0.88668823 C116.56582827 0.8657743 118.17155936 0.98746743 120.46398926 2.03536987 C123.25570001 5.3179224 125.00566914 8.9685645 126.83898926 12.84786987 C127.84469271 14.85543822 128.85243067 16.86198895 129.86242676 18.86740112 C130.50703857 20.20895264 130.50703857 20.20895264 131.16467285 21.5776062 C132.38404598 24.06413502 132.38404598 24.06413502 134.11486816 26.12399292 C136.14771569 29.00404418 135.66123277 31.61648233 135.46398926 35.03536987 C134.47398926 35.03536987 133.48398926 35.03536987 132.46398926 35.03536987 C132.39309082 35.67474487 132.32219238 36.31411987 132.24914551 36.97286987 C131.12626573 41.35265964 129.03506868 45.06717143 126.90148926 49.03536987 C126.45039795 49.8833313 125.99930664 50.73129272 125.5345459 51.60494995 C122.38504202 57.46864235 119.03522216 63.14137306 115.47570801 68.76583862 C112.69752956 73.28105292 110.14005678 77.91214873 107.60827637 82.56930542 C106.0622691 85.37491741 104.58875765 87.88478733 102.53820801 90.35958862 C99.43149097 94.36731211 97.31535298 98.83625816 95.02648926 103.34786987 C94.09348964 105.17893014 93.15732883 107.00838335 92.21789551 108.83615112 C91.76688477 109.71738647 91.31587402 110.59862183 90.85119629 111.50656128 C89.17537688 114.56149571 87.24425015 117.37783545 85.16687012 120.17282104 C84.2289205 122.09961226 84.2289205 122.09961226 85.13366699 124.40182495 C86.57956742 127.26417179 88.10805683 130.04504117 89.72180176 132.81661987 C90.34699707 133.90587769 90.97219238 134.9951355 91.61633301 136.11740112 C92.93339359 138.39943679 94.25633635 140.6780875 95.58508301 142.95333862 C96.2077002 144.04259644 96.83031738 145.13185425 97.47180176 146.25411987 C98.33249268 147.73815308 98.33249268 147.73815308 99.21057129 149.25216675 C100.50616883 152.12902922 100.73603261 153.92427353 100.46398926 157.03536987 C101.04898193 157.08161499 101.63397461 157.12786011 102.23669434 157.17550659 C105.59947 158.47373041 106.37219905 160.68367329 108.10070801 163.79318237 C108.42561722 164.37445892 108.75052643 164.95573547 109.08528137 165.55462646 C109.76976382 166.7868577 110.44769313 168.02274862 111.11950684 169.26193237 C112.14162944 171.14223173 113.18851975 173.00694974 114.23937988 174.87130737 C114.90303291 176.07358157 115.56519057 177.27668266 116.22570801 178.48068237 C116.82343018 179.56881226 117.42115234 180.65694214 118.0369873 181.77804565 C119.55673795 185.24708126 120.10234719 188.28010709 120.46398926 192.03536987 C119.14398926 192.36536987 117.82398926 192.69536987 116.46398926 193.03536987 C116.36344238 194.24386597 116.36344238 194.24386597 116.26086426 195.47677612 C115.20897409 200.17418759 113.09082919 203.8180302 110.71398926 207.97286987 C109.99384644 209.25568848 109.99384644 209.25568848 109.25915527 210.56442261 C108.22161056 212.40955533 107.17986431 214.2523304 106.13439941 216.09298706 C104.38454612 219.17530684 102.64787229 222.26479161 100.91320801 225.35568237 C98.6519412 229.37768489 96.38929657 233.39887016 94.11633301 237.41427612 C93.65218994 238.23484497 93.18804687 239.05541382 92.70983887 239.90084839 C91.68915846 241.64958616 90.58715406 243.35062268 89.46398926 245.03536987 C86.33898926 245.22286987 86.33898926 245.22286987 83.46398926 245.03536987 C83.1528418 244.45271362 82.84169434 243.87005737 82.52111816 243.26974487 C74.67976707 228.62314147 74.67976707 228.62314147 66.08898926 214.41036987 C55.46398926 197.79776595 55.46398926 197.79776595 55.46398926 192.03536987 C54.47398926 192.03536987 53.48398926 192.03536987 52.46398926 192.03536987 C50.60472237 188.53402951 48.75355839 185.02854013 46.90979004 181.51901245 C46.2814694 180.32578712 45.65094899 179.13371742 45.01818848 177.94284058 C44.1089213 176.2306491 43.20821099 174.51392208 42.30773926 172.79708862 C41.76311035 171.76543579 41.21848145 170.73378296 40.65734863 169.67086792 C39.46398926 167.03536987 39.46398926 167.03536987 39.46398926 164.03536987 C38.86618652 163.97325317 38.26838379 163.91113647 37.65246582 163.84713745 C34.51702139 162.68411283 33.96501193 160.98375475 32.44836426 158.04708862 C31.91984863 157.03066284 31.39133301 156.01423706 30.84680176 154.9670105 C30.03855957 153.36116089 30.03855957 153.36116089 29.21398926 151.72286987 C28.65969238 150.66390503 28.10539551 149.60494019 27.53430176 148.5138855 C23.46398926 140.5787812 23.46398926 140.5787812 23.46398926 136.03536987 C22.86256104 135.97035278 22.26113281 135.90533569 21.64147949 135.83834839 C18.55040128 134.69847214 18.07051106 133.10452923 16.62414551 130.18771362 C16.11818848 129.18933472 15.61223145 128.19095581 15.09094238 127.162323 C14.57467285 126.10980347 14.05840332 125.05728394 13.52648926 123.97286987 C10.10151597 117.11861515 6.651101 110.45869231 2.46398926 104.03536987 C2.77336426 104.71599487 3.08273926 105.39661987 3.40148926 106.09786987 C4.59769575 109.40502899 5.05404323 112.55082866 5.46398926 116.03536987 C6.0706543 116.1101355 6.67731934 116.18490112 7.30236816 116.26193237 C10.25971317 117.32008338 10.68039117 118.6240544 12.04992676 121.41036987 C12.50625488 122.31400269 12.96258301 123.2176355 13.43273926 124.14865112 C13.89680176 125.10126831 14.36086426 126.0538855 14.83898926 127.03536987 C17.9782025 133.3758712 21.15491688 139.34742661 25.34924316 145.06271362 C26.46398926 147.03536987 26.46398926 147.03536987 26.46398926 151.03536987 C-66.26601074 151.03536987 -158.99601074 151.03536987 -254.53601074 151.03536987 C-253.76599847 147.18530851 -253.20989654 145.02760414 -251.47351074 141.72286987 C-250.9301709 140.67679565 -250.9301709 140.67679565 -250.37585449 139.60958862 C-250.09870605 139.09009644 -249.82155762 138.57060425 -249.53601074 138.03536987 C-248.54601074 138.03536987 -247.55601074 138.03536987 -246.53601074 138.03536987 C-246.48058105 137.26837769 -246.42515137 136.5013855 -246.36804199 135.71115112 C-245.17246198 130.42926947 -242.73437469 125.99448584 -240.22351074 121.22286987 C-239.4935791 119.77364136 -239.4935791 119.77364136 -238.74890137 118.2951355 C-238.27001465 117.37796753 -237.79112793 116.46079956 -237.29772949 115.51583862 C-236.86420166 114.67947876 -236.43067383 113.8431189 -235.98400879 112.98141479 C-234.53601074 111.03536987 -234.53601074 111.03536987 -232.36340332 110.25534058 C-231.76036377 110.18275024 -231.15732422 110.11015991 -230.53601074 110.03536987 C-230.49476074 109.06599487 -230.45351074 108.09661987 -230.41101074 107.09786987 C-229.70458164 102.01781355 -226.83927932 97.86453196 -223.53601074 94.03536987 C-220.55684689 93.04231525 -218.60140452 92.90871044 -215.49230957 92.90597534 C-214.46305862 92.90282318 -213.43380768 92.89967102 -212.37336731 92.89642334 C-211.25785995 92.89844757 -210.1423526 92.9004718 -208.99304199 92.90255737 C-207.83664719 92.90160065 -206.68025238 92.90064392 -205.48881531 92.8996582 C-203.03164618 92.89897661 -200.57447526 92.90082947 -198.11730957 92.90499878 C-194.40852642 92.91028434 -190.69986791 92.90508611 -186.99108887 92.89865112 C-174.80157629 92.89556759 -162.68724653 93.00267362 -150.53601074 94.03536987 C-150.86601074 92.05536987 -151.19601074 90.07536987 -151.53601074 88.03536987 C-152.44359131 87.92914307 -152.44359131 87.92914307 -153.36950684 87.82077026 C-156.38254108 86.72848593 -156.80981578 85.31671451 -158.20007324 82.46896362 C-158.67759033 81.5159436 -159.15510742 80.56292358 -159.64709473 79.58102417 C-160.14668701 78.55533325 -160.6462793 77.52964233 -161.16101074 76.47286987 C-164.82146097 69.18746402 -168.5515123 62.07646034 -172.97351074 55.22286987 C-182.53601074 40.32844918 -182.53601074 40.32844918 -182.53601074 34.03536987 C-183.52601074 34.03536987 -184.51601074 34.03536987 -185.53601074 34.03536987 C-186.30752534 27.21113955 -183.81366792 23.1862383 -180.28601074 17.47286987 C-179.54931152 16.23633667 -179.54931152 16.23633667 -178.79772949 14.974823 C-177.40137367 12.64570148 -175.97511781 10.33825357 -174.53601074 8.03536987 C-174.1576709 7.41162476 -173.77933105 6.78787964 -173.38952637 6.14523315 C-170.88924293 2.15311394 -170.88924293 2.15311394 -167.53601074 1.03536987 C-162.85451413 0.76096845 -158.17401485 0.72208993 -153.48522949 0.68527222 C-151.93917798 0.66870738 -150.39320323 0.64140966 -148.84753418 0.60324097 C-146.61047953 0.54834099 -144.37521163 0.52658371 -142.13757324 0.51193237 C-141.45095612 0.489263 -140.76433899 0.46659363 -140.05691528 0.4432373 C-136.25167532 0.45990603 -134.67343631 0.92388875 -131.68322754 3.34957886 C-130.02815787 5.41978027 -128.68522411 7.15215698 -127.57897949 9.53146362 C-127.27556641 10.16487671 -126.97215332 10.79828979 -126.6595459 11.45089722 C-126.1962085 12.45177368 -126.1962085 12.45177368 -125.72351074 13.47286987 C-122.61707376 19.92583356 -119.2799224 26.12826382 -115.67663574 32.32052612 C-113.63355904 35.83819632 -111.67564066 39.39995447 -109.71862793 42.96603394 C-105.35464557 50.98926815 -105.35464557 50.98926815 -100.41101074 58.66036987 C-97.60815362 62.69551762 -95.38293064 66.9751393 -93.16101074 71.34786987 C-92.80249023 72.04283569 -92.44396973 72.73780151 -92.07458496 73.4538269 C-90.32578966 76.96594096 -89.53601074 79.0406492 -89.53601074 83.03536987 C-88.93788574 83.11786987 -88.33976074 83.20036987 -87.72351074 83.28536987 C-84.84132356 84.27354834 -84.05930918 85.42400112 -82.53601074 88.03536987 C-82.1701602 89.69520187 -81.83249544 91.36175531 -81.53601074 93.03536987 C-80.97098846 93.0228418 -80.40596619 93.01031372 -79.82382202 92.99740601 C-73.81909122 92.86474798 -67.81429259 92.73553604 -61.80944824 92.60812378 C-59.58319306 92.56046401 -57.35695509 92.51199174 -55.1307373 92.46261597 C-47.59948533 92.29593514 -40.06818523 92.15324518 -32.53601074 92.03536987 C-30.95874207 92.00878296 -30.95874207 92.00878296 -29.34960938 91.98165894 C-26.33100765 91.9354961 -23.31266207 91.90467928 -20.29382324 91.87911987 C-19.39477264 91.86425537 -18.49572205 91.84939087 -17.56942749 91.83407593 C-12.80817333 91.81237754 -9.01114666 92.18131969 -4.53601074 94.03536987 C-5.0500262 91.36248947 -5.84492084 89.42990609 -7.09851074 86.97286987 C-8.53601074 84.03536987 -8.53601074 84.03536987 -8.53601074 81.03536987 C-9.13381348 80.97325317 -9.73161621 80.91113647 -10.34753418 80.84713745 C-13.48297861 79.68411283 -14.03498807 77.98375475 -15.55163574 75.04708862 C-16.08015137 74.03066284 -16.60866699 73.01423706 -17.15319824 71.9670105 C-17.69202637 70.89644409 -18.23085449 69.82587769 -18.78601074 68.72286987 C-19.61745605 67.13442261 -19.61745605 67.13442261 -20.46569824 65.5138855 C-24.53601074 57.5787812 -24.53601074 57.5787812 -24.53601074 53.03536987 C-25.1383252 52.96422974 -25.74063965 52.8930896 -26.36120605 52.8197937 C-29.37330937 51.73336712 -29.87599744 50.29670325 -31.33288574 47.48458862 C-31.81628418 46.55839722 -32.29968262 45.63220581 -32.79772949 44.677948 C-33.2888623 43.70277222 -33.77999512 42.72759644 -34.28601074 41.72286987 C-34.7926123 40.75929565 -35.29921387 39.79572144 -35.82116699 38.802948 C-39.53601074 31.57852814 -39.53601074 31.57852814 -39.53601074 27.03536987 C-40.44625 26.91403687 -40.44625 26.91403687 -41.37487793 26.79025269 C-44.24946622 25.78616016 -44.71575147 24.62379949 -46.11413574 21.95724487 C-46.55241699 21.12579956 -46.99069824 20.29435425 -47.44226074 19.43771362 C-47.88569824 18.56244019 -48.32913574 17.68716675 -48.78601074 16.78536987 C-49.24491699 15.92556519 -49.70382324 15.0657605 -50.17663574 14.17990112 C-52.40467277 9.8763415 -53.82134788 6.96887072 -53.53601074 2.03536987 C-50.27993768 1.31745708 -47.22043519 0.89653799 -43.8885498 0.83004761 C-42.99702209 0.81010239 -42.10549438 0.79015717 -41.18695068 0.76960754 C-40.23479675 0.75289505 -39.28264282 0.73618256 -38.30163574 0.71896362 C-37.30903748 0.69818253 -36.31643921 0.67740143 -35.29376221 0.6559906 C-32.12458003 0.59077859 -28.95531427 0.53185494 -25.78601074 0.47286987 C-23.66881527 0.42963867 -21.55162762 0.38602296 -19.43444824 0.3420105 C-12.95642113 0.21098059 -6.47872249 0.09035908 0 0 Z M0.46398926 101.03536987 C1.46398926 103.03536987 1.46398926 103.03536987 1.46398926 103.03536987 Z " fill="#F7AB7E" transform="translate(310.5360107421875,34.964630126953125)"/>
<path d="M0 0 C2.6875 -0.5 2.6875 -0.5 6 0 C8.15917682 2.38621221 9.52666661 5.15479576 11 8 C11.74908119 9.32807803 12.50034684 10.65492656 13.25390625 11.98046875 C14.02508153 13.38190909 14.79454042 14.78429495 15.5625 16.1875 C23.72954346 30.98232996 32.06586092 45.67145828 40.90380859 60.07763672 C50 75.02928398 50 75.02928398 50 81 C50.59780273 81.06735352 51.19560547 81.13470703 51.81152344 81.20410156 C54.88305268 82.32114589 55.46834867 83.89338937 57.015625 86.734375 C57.80839844 88.18457031 57.80839844 88.18457031 58.6171875 89.6640625 C59.15601563 90.68242187 59.69484375 91.70078125 60.25 92.75 C60.80429688 93.75289063 61.35859375 94.75578125 61.9296875 95.7890625 C66.35684352 104.01092367 66.35684352 104.01092367 66 109 C66.59820557 109.06687012 67.19641113 109.13374023 67.81274414 109.20263672 C70.89354005 110.32573968 71.45468076 111.89823806 72.99609375 114.7578125 C73.54885986 115.76545654 74.10162598 116.77310059 74.67114258 117.8112793 C75.25404053 118.90480713 75.83693848 119.99833496 76.4375 121.125 C77.67869181 123.40549012 78.92090401 125.68542513 80.1640625 127.96484375 C80.47936417 128.54726334 80.79466583 129.12968292 81.11952209 129.72975159 C83.27819268 133.71100511 85.5039933 137.64737389 87.7734375 141.56640625 C88.36842041 142.59685059 88.96340332 143.62729492 89.57641602 144.68896484 C90.71165668 146.64973349 91.85254718 148.60724466 92.99975586 150.56103516 C95.56651659 155.03034213 97.67692233 158.73470709 98 164 C98.61101562 164.0820166 99.22203125 164.1640332 99.8515625 164.24853516 C102.70862453 165.24785753 103.07583834 166.3300957 104.375 169.0234375 C104.7970874 169.87083496 105.2191748 170.71823242 105.65405273 171.59130859 C106.09821533 172.50992676 106.54237793 173.42854492 107 174.375 C111.62092663 183.5852085 116.76415222 192.26045834 122.37109375 200.8984375 C129.57907927 212.06443746 129.57907927 212.06443746 129 218 C129.61206299 218.10127197 130.22412598 218.20254395 130.85473633 218.30688477 C134.45679824 219.4706783 135.82527797 222.84197771 137.6875 225.9375 C138.09033203 226.58396484 138.49316406 227.23042969 138.90820312 227.89648438 C142.49656172 233.68474121 143.10799916 236.30405239 143 243 C137.37886732 243.95608151 131.94946058 244.14597172 126.25390625 244.1328125 C125.32513168 244.13376923 124.39635712 244.13472595 123.43943787 244.13571167 C121.47695854 244.13638989 119.51447693 244.13456063 117.55200195 244.13037109 C114.60297361 244.12507272 111.65410143 244.13029978 108.70507812 244.13671875 C104.0034241 244.1412273 99.30396817 244.09880007 94.60287476 244.02813721 C92.13890237 244.00150154 89.67806451 244.01718302 87.21411133 244.03662109 C77.37460172 243.97364169 77.37460172 243.97364169 73.9753418 241.56591797 C72.45633107 239.5660144 71.52175173 237.69346351 70.5625 235.375 C69.78559628 233.80903033 69.00691604 232.24394091 68.2265625 230.6796875 C67.85821289 229.89045898 67.48986328 229.10123047 67.11035156 228.28808594 C65.45393319 224.87472777 63.45167343 221.71025183 61.4375 218.5 C57.76743376 212.46864224 54.44620146 206.28093979 51.18359375 200.02172852 C48.32496084 194.55306711 45.27715842 189.23060187 42 184 C38.9099999 187.69275797 36.32048789 191.55135894 33.875 195.6875 C33.48957031 196.33396484 33.10414063 196.98042969 32.70703125 197.64648438 C29.26733715 203.45857199 26.0023436 209.36344796 22.74511719 215.27905273 C19.95835922 220.3231281 17.09135546 225.30938121 14.125 230.25 C13.58939453 231.14332031 13.58939453 231.14332031 13.04296875 232.0546875 C6.60331424 242.69834288 6.60331424 242.69834288 4 244 C-0.37045918 244.23525839 -4.74480994 244.22841656 -9.12084961 244.24023438 C-11.29384983 244.2499169 -13.46589463 244.28092826 -15.63867188 244.3125 C-17.02603606 244.31903269 -18.413407 244.32428212 -19.80078125 244.328125 C-21.06059814 244.3374707 -22.32041504 244.34681641 -23.6184082 244.35644531 C-27.31574099 243.96671851 -29.09840064 243.28939936 -32 241 C-33.57739258 238.90283203 -33.57739258 238.90283203 -34.89453125 236.5078125 C-35.37470703 235.63769531 -35.85488281 234.76757812 -36.34960938 233.87109375 C-36.83236328 232.96488281 -37.31511719 232.05867187 -37.8125 231.125 C-38.31458984 230.22652344 -38.81667969 229.32804688 -39.33398438 228.40234375 C-43.32018625 221.05905486 -43.32018625 221.05905486 -43 216 C-43.99 216 -44.98 216 -46 216 C-46 214.35 -46 212.7 -46 211 C-45.01 211 -44.02 211 -43 211 C-42.90976563 210.16082031 -42.81953125 209.32164062 -42.7265625 208.45703125 C-41.88726803 204.46361402 -40.3129522 201.2325135 -38.375 197.6875 C-37.80241455 196.62160645 -37.80241455 196.62160645 -37.21826172 195.53417969 C-31.67063234 185.36388268 -25.59450853 175.48781124 -19.57470703 165.59277344 C-18.49391899 163.81324336 -17.4657472 162.00100749 -16.48388672 160.16503906 C-15.9942041 159.45057617 -15.50452148 158.73611328 -15 158 C-14.01 158 -13.02 158 -12 158 C-11.89115479 157.12134277 -11.78230957 156.24268555 -11.67016602 155.33740234 C-10.98654458 151.93299249 -9.96343535 149.61877905 -8.27734375 146.6015625 C-7.73916016 145.62832031 -7.20097656 144.65507812 -6.64648438 143.65234375 C-6.08251953 142.65332031 -5.51855469 141.65429688 -4.9375 140.625 C-4.36966797 139.60277344 -3.80183594 138.58054687 -3.21679688 137.52734375 C-1.81903225 135.0137166 -0.4132736 132.50492973 1 130 C1.99 130 2.98 130 4 130 C4.71033431 124.47032059 5.30267176 119.50016964 4 114 C3.01 114 2.02 114 1 114 C-1.1803129 110.09078105 -3.34183744 106.17148456 -5.5 102.25 C-6.12003906 101.13882813 -6.74007812 100.02765625 -7.37890625 98.8828125 C-7.96542969 97.81289063 -8.55195313 96.74296875 -9.15625 95.640625 C-9.70087891 94.65610352 -10.24550781 93.67158203 -10.80664062 92.65722656 C-12 90 -12 90 -12 86 C-12.59925293 85.9393335 -13.19850586 85.87866699 -13.81591797 85.81616211 C-16.96339867 84.63999086 -17.47106652 82.91344765 -18.9453125 79.94140625 C-19.46480469 78.91595703 -19.98429687 77.89050781 -20.51953125 76.83398438 C-21.04933594 75.75439453 -21.57914063 74.67480469 -22.125 73.5625 C-23.18699142 71.43724379 -24.25195443 69.3134691 -25.3203125 67.19140625 C-25.78711426 66.24467041 -26.25391602 65.29793457 -26.73486328 64.32250977 C-27.91381631 61.89771473 -27.91381631 61.89771473 -30 60 C-30.75278268 53.83179086 -28.97352955 50.26431202 -25.875 45.1875 C-25.46556152 44.49333984 -25.05612305 43.79917969 -24.63427734 43.08398438 C-23.81371493 41.69608376 -22.98716639 40.31170265 -22.15429688 38.93115234 C-21.13016572 37.21776879 -20.14782491 35.4795594 -19.171875 33.73828125 C-18.66140625 32.83464844 -18.1509375 31.93101562 -17.625 31 C-17.18414062 30.21625 -16.74328125 29.4325 -16.2890625 28.625 C-15.86367187 28.08875 -15.43828125 27.5525 -15 27 C-14.01 27 -13.02 27 -12 27 C-11.94972656 26.06027344 -11.89945313 25.12054688 -11.84765625 24.15234375 C-11.06960681 18.70599767 -8.14687499 14.26077947 -5.4375 9.5625 C-4.91736328 8.64017578 -4.39722656 7.71785156 -3.86132812 6.76757812 C-2.58401304 4.50591012 -1.29680323 2.25053176 0 0 Z " fill="#242434" transform="translate(171,291)"/>
<path d="M0 0 C2.38671875 -0.10546875 2.38671875 -0.10546875 5 0 C7.40311451 2.23738248 7.96341425 3.46340904 8.1875 6.75 C8.125625 7.4925 8.06375 8.235 8 9 C8.60215332 9.06952881 9.20430664 9.13905762 9.82470703 9.21069336 C12.85796362 10.31131273 13.34899077 11.78863201 14.8046875 14.62890625 C15.30613281 15.58216797 15.80757812 16.53542969 16.32421875 17.51757812 C16.83597656 18.52240234 17.34773437 19.52722656 17.875 20.5625 C21.10272331 26.82395302 24.31363845 32.68956021 28.66552734 38.24145508 C30.53717572 40.70788085 31.97296582 43.30664975 33.375 46.0625 C33.87773438 47.02285156 34.38046875 47.98320312 34.8984375 48.97265625 C36.4759018 53.30788614 36.88599626 56.77133187 35.14599609 61.14819336 C34.00300312 63.45946234 32.77796233 65.69818763 31.5 67.9375 C31.07074219 68.71673828 30.64148438 69.49597656 30.19921875 70.29882812 C29.14590069 72.20650417 28.07472631 74.1043022 27 76 C26.01 76 25.02 76 24 76 C23.9071875 76.66 23.814375 77.32 23.71875 78 C22.77980239 81.91908569 21.21268802 85.36273241 19.5 89 C19.14977783 89.74677002 18.79955566 90.49354004 18.4387207 91.26293945 C15.49561248 97.34718105 11.99629117 102.74483157 7.98046875 108.16796875 C5.99233421 111.01096193 4.51765148 113.88688947 3 117 C4.26120918 117.00879936 4.26120918 117.00879936 5.54789734 117.01777649 C13.47852842 117.07572246 21.40887843 117.14781006 29.33923626 117.23571491 C33.41616012 117.28040899 37.49298427 117.31966707 41.57006836 117.34643555 C45.50599859 117.37247839 49.44154495 117.41288729 53.37723732 117.46318626 C54.8774519 117.47984843 56.37773286 117.49136678 57.87802696 117.49761391 C59.98248746 117.50726249 62.08596738 117.53532826 64.19018555 117.56762695 C65.38709518 117.57873001 66.58400482 117.58983307 67.81718445 117.60127258 C71.87043367 118.10904363 74.65538165 119.43914186 77.3359375 122.55078125 C78.59361959 124.68316706 79.8127628 126.8272567 81 129 C81.61746094 130.08410156 82.23492188 131.16820312 82.87109375 132.28515625 C83.52092141 133.48031093 84.16805127 134.67693634 84.8125 135.875 C85.41707031 136.98617187 86.02164063 138.09734375 86.64453125 139.2421875 C88.74905163 145.07662151 89.18377722 149.94409808 86.91088867 155.81152344 C85.44210353 158.76062541 83.85521247 161.59642581 82.1875 164.4375 C81.64029297 165.41654297 81.09308594 166.39558594 80.52929688 167.40429688 C75.89947158 175.56962512 75.89947158 175.56962512 73 178 C69.97391029 178.28612955 67.1552427 178.38891925 64.12915039 178.35644531 C63.22139862 178.35848969 62.31364685 178.36053406 61.37838745 178.36264038 C58.36794072 178.36565545 55.35803826 178.34713689 52.34765625 178.328125 C50.2507694 178.32506612 48.15388052 178.32319098 46.05699158 178.32244873 C41.65274319 178.31783973 37.24867702 178.30340018 32.84448242 178.28125 C27.22613664 178.25312387 21.60793528 178.24205423 15.98952579 178.2375679 C10.60888437 178.23238042 5.22827844 178.21784715 -0.15234375 178.203125 C-1.16774672 178.20124428 -2.18314968 178.19936356 -3.22932243 178.19742584 C-23.92638747 178.1479589 -23.92638747 178.1479589 -34 177 C-34.185625 178.36125 -34.185625 178.36125 -34.375 179.75 C-34.92109677 182.58970323 -35.57263803 184.52590591 -37 187 C-37.99 187 -38.98 187 -40 187 C-40.10828125 187.96292969 -40.10828125 187.96292969 -40.21875 188.9453125 C-41.32763135 193.28103859 -43.38707964 196.94792041 -45.5 200.875 C-45.94778809 201.71635498 -46.39557617 202.55770996 -46.85693359 203.42456055 C-50.32135617 209.87532272 -54.00331687 216.1682464 -57.828125 222.41015625 C-60.78540697 227.24970823 -63.52234953 232.21312385 -66.2734375 237.171875 C-68.79100518 241.29567365 -68.79100518 241.29567365 -71 243 C-73.54679871 243.36749268 -73.54679871 243.36749268 -76.62963867 243.35644531 C-77.78481491 243.35944641 -78.93999115 243.36244751 -80.13017273 243.36553955 C-81.38014542 243.35319275 -82.6301181 243.34084595 -83.91796875 243.328125 C-85.20431717 243.32625183 -86.49066559 243.32437866 -87.81599426 243.32244873 C-90.54225188 243.31784493 -93.26821426 243.30342542 -95.99438477 243.28125 C-99.46978374 243.2531083 -102.94494909 243.24205204 -106.42045116 243.2375679 C-109.75299234 243.23237806 -113.08545514 243.21783734 -116.41796875 243.203125 C-117.65782028 243.19887512 -118.89767181 243.19462524 -120.1750946 243.19024658 C-126.20564517 243.14076589 -132.0375099 242.92206789 -138 242 C-136.5214996 237.04856375 -134.4360257 232.71394518 -132 228.1875 C-131.60192139 227.44250244 -131.20384277 226.69750488 -130.79370117 225.92993164 C-126.87294655 218.65552745 -122.68322589 211.55093347 -118.45556641 204.45214844 C-115.61579186 199.66806667 -112.80713796 194.86578301 -110 190.0625 C-109.40292236 189.04140137 -108.80584473 188.02030273 -108.19067383 186.96826172 C-104.14514057 180.0262617 -100.18752928 173.04175246 -96.37109375 165.97094727 C-94.4371021 162.42486267 -92.38784754 159.04373761 -90.109375 155.70703125 C-86.61347272 150.54469713 -83.6854732 145.1197928 -80.75 139.625 C-79.70433245 137.67903819 -78.65750902 135.73369693 -77.609375 133.7890625 C-76.9282666 132.51603271 -76.9282666 132.51603271 -76.23339844 131.21728516 C-75 129 -75 129 -73 126 C-72.01 126 -71.02 126 -70 126 C-69.93683594 125.20980469 -69.87367188 124.41960937 -69.80859375 123.60546875 C-68.70732912 118.69499892 -66.46036358 114.70802272 -64.0625 110.3125 C-63.60681641 109.45849609 -63.15113281 108.60449219 -62.68164062 107.72460938 C-60.88988639 104.3850733 -59.10397438 101.15596157 -57 98 C-56.01 98 -55.02 98 -54 98 C-53.93683594 97.21109375 -53.87367188 96.4221875 -53.80859375 95.609375 C-52.70472671 90.68196849 -50.45880036 86.66618328 -48.0625 82.25 C-47.60681641 81.38761719 -47.15113281 80.52523437 -46.68164062 79.63671875 C-43.28950893 73.28950893 -43.28950893 73.28950893 -41 71 C-40.01 71 -39.02 71 -38 71 C-37.96003906 70.07058594 -37.92007813 69.14117187 -37.87890625 68.18359375 C-37.06929713 62.51632988 -33.82817661 57.8957113 -30.9375 53.0625 C-30.36966797 52.09248047 -29.80183594 51.12246094 -29.21679688 50.12304688 C-27.82129906 47.74249178 -26.41558519 45.36864614 -25 43 C-24.01 43 -23.02 43 -22 43 C-21.96003906 42.07058594 -21.92007813 41.14117187 -21.87890625 40.18359375 C-21.06929713 34.51632988 -17.82817661 29.8957113 -14.9375 25.0625 C-14.36966797 24.09248047 -13.80183594 23.12246094 -13.21679688 22.12304688 C-11.82129906 19.74249178 -10.41558519 17.36864614 -9 15 C-8.01 15 -7.02 15 -6 15 C-5.938125 14.195625 -5.87625 13.39125 -5.8125 12.5625 C-4.73463007 7.8364549 -2.48408581 4.12486573 0 0 Z " fill="#232434" transform="translate(483,137)"/>
<path d="M0 0 C22.11 0 44.22 0 67 0 C66 5 66 5 65 7 C64.01 7 63.02 7 62 7 C61.89115479 7.87865723 61.78230957 8.75731445 61.67016602 9.66259766 C60.98654458 13.06700751 59.96343535 15.38122095 58.27734375 18.3984375 C57.73916016 19.37167969 57.20097656 20.34492188 56.64648438 21.34765625 C56.08251953 22.34667969 55.51855469 23.34570312 54.9375 24.375 C54.36966797 25.39722656 53.80183594 26.41945312 53.21679688 27.47265625 C51.81903225 29.9862834 50.4132736 32.49507027 49 35 C48.01 35 47.02 35 46 35 C45.9071875 35.67289063 45.814375 36.34578125 45.71875 37.0390625 C44.81603026 40.75787535 43.22909113 43.98716621 41.5 47.375 C40.96596558 48.43110474 40.96596558 48.43110474 40.42114258 49.50854492 C37.35114967 55.48998023 33.96474218 61.23834585 30.44140625 66.9609375 C28.58537884 69.99052758 26.82460543 73.06346777 25.08984375 76.1640625 C24.59718018 77.03893311 24.1045166 77.91380371 23.59692383 78.81518555 C22.62827869 80.54088093 21.6682207 82.27142924 20.7175293 84.00708008 C20.27707275 84.78720459 19.83661621 85.5673291 19.3828125 86.37109375 C18.99496582 87.07161865 18.60711914 87.77214355 18.20751953 88.49389648 C17.80903809 88.99091064 17.41055664 89.4879248 17 90 C16.01 90 15.02 90 14 90 C13.94972656 90.77601563 13.89945313 91.55203125 13.84765625 92.3515625 C12.63861152 97.55546932 10.07337979 101.76138769 7.4375 106.375 C6.91736328 107.30183594 6.39722656 108.22867188 5.86132812 109.18359375 C4.58212166 111.46034654 3.29487762 113.73213523 2 116 C1.01 116 0.02 116 -1 116 C-1.10884521 116.87865723 -1.21769043 117.75731445 -1.32983398 118.66259766 C-2.01345542 122.06700751 -3.03656465 124.38122095 -4.72265625 127.3984375 C-5.52993164 128.85830078 -5.52993164 128.85830078 -6.35351562 130.34765625 C-6.91748047 131.34667969 -7.48144531 132.34570312 -8.0625 133.375 C-8.63033203 134.39722656 -9.19816406 135.41945313 -9.78320312 136.47265625 C-11.18096775 138.9862834 -12.5867264 141.49507027 -14 144 C-14.99 144 -15.98 144 -17 144 C-17.05542969 144.77730469 -17.11085937 145.55460938 -17.16796875 146.35546875 C-18.34389449 151.50635472 -20.76459045 155.71439673 -23.3125 160.3125 C-23.79912109 161.23095703 -24.28574219 162.14941406 -24.78710938 163.09570312 C-25.26599609 163.96775391 -25.74488281 164.83980469 -26.23828125 165.73828125 C-26.67180908 166.53274658 -27.10533691 167.32721191 -27.55200195 168.14575195 C-29.2613084 170.33462102 -30.29334135 170.65393823 -33 171 C-33.03996094 171.92941406 -33.07992187 172.85882813 -33.12109375 173.81640625 C-33.93070287 179.48367012 -37.17182339 184.1042887 -40.0625 188.9375 C-40.63033203 189.90751953 -41.19816406 190.87753906 -41.78320312 191.87695312 C-43.17870094 194.25750822 -44.58441481 196.63135386 -46 199 C-46.99 199 -47.98 199 -49 199 C-49.10884521 199.87865723 -49.21769043 200.75731445 -49.32983398 201.66259766 C-50.01345542 205.06700751 -51.03656465 207.38122095 -52.72265625 210.3984375 C-53.26083984 211.37167969 -53.79902344 212.34492188 -54.35351562 213.34765625 C-54.91748047 214.34667969 -55.48144531 215.34570312 -56.0625 216.375 C-56.91424805 217.90833984 -56.91424805 217.90833984 -57.78320312 219.47265625 C-59.18096775 221.9862834 -60.5867264 224.49507027 -62 227 C-62.99 227 -63.98 227 -65 227 C-65.0928125 228.2065625 -65.0928125 228.2065625 -65.1875 229.4375 C-66.26536993 234.1635451 -68.51591419 237.87513427 -71 242 C-73.38671875 242.10546875 -73.38671875 242.10546875 -76 242 C-78.40311451 239.76261752 -78.96341425 238.53659096 -79.1875 235.25 C-79.125625 234.5075 -79.06375 233.765 -79 233 C-79.60650391 232.92249512 -80.21300781 232.84499023 -80.83789062 232.76513672 C-83.76274562 231.73007625 -84.19976958 230.49313895 -85.59375 227.7578125 C-86.06135742 226.86529785 -86.52896484 225.9727832 -87.01074219 225.05322266 C-87.7479248 223.60375244 -87.7479248 223.60375244 -88.5 222.125 C-92.99195202 213.52222275 -97.78471525 205.30654757 -103.34179688 197.34423828 C-106.06468565 193.26447373 -107.82790355 190.03600967 -107.46582031 185.04443359 C-106.54494199 181.00280095 -104.55706276 177.56433998 -102.5 174 C-102.07074219 173.22527344 -101.64148438 172.45054687 -101.19921875 171.65234375 C-100.1478147 169.75981645 -99.07596638 167.87867145 -98 166 C-97.01 166 -96.02 166 -95 166 C-94.91363281 165.32582031 -94.82726562 164.65164063 -94.73828125 163.95703125 C-93.79966646 160.19760585 -92.05773322 157.04616579 -90.1875 153.6875 C-89.45354628 152.34553344 -88.72046338 151.00309022 -87.98828125 149.66015625 C-87.63975098 149.02352051 -87.2912207 148.38688477 -86.93212891 147.73095703 C-85.85116639 145.72361701 -84.85269247 143.68439479 -83.875 141.625 C-82.07313085 137.94117862 -79.81544727 134.62787966 -77.46484375 131.2734375 C-75.75064956 128.61300812 -74.39816917 125.83705466 -73 123 C-74.28350342 123.03029297 -75.56700684 123.06058594 -76.8894043 123.09179688 C-81.75946634 123.20607885 -86.62959873 123.31709714 -91.49975586 123.42724609 C-93.58734071 123.47489106 -95.67490691 123.52336223 -97.76245117 123.57275391 C-104.84128474 123.73987645 -111.92016527 123.88265706 -119 124 C-119.99678772 124.01772461 -120.99357544 124.03544922 -122.02056885 124.05371094 C-124.89522993 124.09996321 -127.76961931 124.13073571 -130.64453125 124.15625 C-131.93057503 124.17854675 -131.93057503 124.17854675 -133.24259949 124.20129395 C-137.88547373 124.22342881 -141.67275528 123.90649262 -146 122 C-149.77317193 118.22682807 -151.89434296 113.56660606 -154.1875 108.8125 C-154.54263672 108.08869141 -154.89777344 107.36488281 -155.26367188 106.61914062 C-156.18071796 104.74850582 -157.09084475 102.87448255 -158 101 C-158.33 100.34 -158.66 99.68 -159 99 C-160.29493724 90.50701225 -157.4094037 84.75483191 -153.1875 77.5625 C-152.64029297 76.58345703 -152.09308594 75.60441406 -151.52929688 74.59570312 C-146.89947158 66.43037488 -146.89947158 66.43037488 -144 64 C-140.97391029 63.71387045 -138.1552427 63.61108075 -135.12915039 63.64355469 C-134.22139862 63.64151031 -133.31364685 63.63946594 -132.37838745 63.63735962 C-129.36794072 63.63434455 -126.35803826 63.65286311 -123.34765625 63.671875 C-121.2507694 63.67493388 -119.15388052 63.67680902 -117.05699158 63.67755127 C-112.65274319 63.68216027 -108.24867702 63.69659982 -103.84448242 63.71875 C-98.22613664 63.74687613 -92.60793528 63.75794577 -86.98952579 63.7624321 C-81.60888437 63.76761958 -76.22827844 63.78215285 -70.84765625 63.796875 C-69.83225328 63.79875572 -68.81685032 63.80063644 -67.77067757 63.80257416 C-47.07361253 63.8520411 -47.07361253 63.8520411 -37 65 C-36.814375 63.63875 -36.814375 63.63875 -36.625 62.25 C-36.07890323 59.41029677 -35.42736197 57.47409409 -34 55 C-33.01 55 -32.02 55 -31 55 C-30.89365234 54.0409375 -30.89365234 54.0409375 -30.78515625 53.0625 C-29.66227648 48.68271023 -27.57107942 44.96819844 -25.4375 41 C-24.98640869 40.15203857 -24.53531738 39.30407715 -24.07055664 38.43041992 C-20.92503633 32.57414408 -17.57796432 26.90906315 -14.02734375 21.2890625 C-10.14016402 14.98269384 -6.59217824 8.47756215 -3 2 C-2.01 2 -1.02 2 0 2 C0 1.34 0 0.68 0 0 Z " fill="#F7AB7E" transform="translate(159,192)"/>
<path d="M0 0 C92.4 0 184.8 0 280 0 C279.19111771 5.66217606 278.83269049 7.95301758 276.26953125 12.58203125 C275.71330078 13.59716797 275.15707031 14.61230469 274.58398438 15.65820312 C273.99939453 16.69912109 273.41480469 17.74003906 272.8125 18.8125 C271.96461914 20.35647461 271.96461914 20.35647461 271.09960938 21.93164062 C269.42291729 24.96812424 267.71572469 27.98543246 266 31 C265.17894775 32.47992432 265.17894775 32.47992432 264.34130859 33.98974609 C263.82004395 34.90449707 263.2987793 35.81924805 262.76171875 36.76171875 C262.30112061 37.57987061 261.84052246 38.39802246 261.3659668 39.2409668 C260.91519775 39.82144775 260.46442871 40.40192871 260 41 C259.01 41 258.02 41 257 41 C256.9175 41.825 256.835 42.65 256.75 43.5 C255.69934458 48.40305862 254.01618689 53.0427301 250.35882568 56.59321594 C247.13376663 58.51661439 244.772297 58.36049094 241.02832031 58.34057617 C239.98868889 58.34123329 239.98868889 58.34123329 238.92805481 58.34190369 C236.64445512 58.33981897 234.36159592 58.31650401 232.078125 58.29296875 C230.49200847 58.28737164 228.90588675 58.28310208 227.31976318 58.28010559 C223.15050877 58.2686658 218.98156921 58.23920626 214.81243896 58.20599365 C210.55599222 58.175274 206.29949446 58.16159621 202.04296875 58.14648438 C193.69516821 58.11433555 185.3476233 58.06314989 177 58 C177 59.32 177 60.64 177 62 C177.90758057 62.10622681 177.90758057 62.10622681 178.83349609 62.21459961 C181.84653034 63.30688394 182.27380503 64.71865536 183.6640625 67.56640625 C184.14149902 68.51926514 184.61893555 69.47212402 185.11083984 70.45385742 C185.6105127 71.47970947 186.11018555 72.50556152 186.625 73.5625 C190.26499963 80.8072518 193.96935668 87.87761961 198.375 94.6875 C209 111.20710542 209 111.20710542 209 118 C209.99 118 210.98 118 212 118 C212.55448295 123.47761945 210.76707824 126.79066125 207.875 131.25 C207.04654966 132.57010839 206.21842563 133.89042161 205.390625 135.2109375 C204.98263672 135.85256836 204.57464844 136.49419922 204.15429688 137.15527344 C202.09066667 140.45324083 200.20086554 143.85460667 198.2890625 147.2421875 C197 149 197 149 194 150 C192.19852795 150.09411337 190.39377126 150.13071055 188.58984375 150.1328125 C187.51669922 150.13410156 186.44355469 150.13539063 185.33789062 150.13671875 C184.21576172 150.13285156 183.09363281 150.12898437 181.9375 150.125 C180.84244141 150.12886719 179.74738281 150.13273438 178.61914062 150.13671875 C176.44499823 150.13412894 174.27075383 150.10858452 172.09716797 150.05932617 C170.1224837 150.02150115 168.14556457 150.03696012 166.17236328 150.12231445 C163.47080339 150.12104897 161.51899025 149.98548009 159 149 C156.2423228 146.00725608 154.68853993 142.61310961 153 138.9375 C151.99258549 136.91841959 150.98082265 134.90150325 149.96484375 132.88671875 C149.22403564 131.3869751 149.22403564 131.3869751 148.46826172 129.85693359 C146.39885955 125.83030502 144.02600349 122.04405636 141.5625 118.25 C132 103.28301678 132 103.28301678 132 97 C131.39172363 96.91983643 130.78344727 96.83967285 130.15673828 96.75708008 C127.27527255 95.74559884 126.84909776 94.58209529 125.4921875 91.88671875 C125.06292969 91.05076172 124.63367188 90.21480469 124.19140625 89.35351562 C123.53978516 88.03383789 123.53978516 88.03383789 122.875 86.6875 C122.43285156 85.81931641 121.99070312 84.95113281 121.53515625 84.05664062 C120.34334487 81.71082457 119.16836221 79.35755977 118 77 C117.62375488 76.3294458 117.24750977 75.6588916 116.85986328 74.96801758 C116 73 116 73 116 69 C115.07960938 68.87431641 115.07960938 68.87431641 114.140625 68.74609375 C112 68 112 68 110.734375 66.22265625 C110.40953125 65.50980469 110.0846875 64.79695313 109.75 64.0625 C109.24726563 62.99708984 109.24726563 62.99708984 108.734375 61.91015625 C108 60 108 60 108 58 C107.01 58.495 107.01 58.495 106 59 C103.74956538 59.10749223 101.49588716 59.14891951 99.24291992 59.16113281 C98.20114342 59.16858017 98.20114342 59.16858017 97.13832092 59.17617798 C94.83569352 59.19080841 92.53313504 59.19760358 90.23046875 59.203125 C88.63104754 59.20887642 87.03162636 59.21463416 85.4322052 59.22039795 C82.07548704 59.23091092 78.71879286 59.23675141 75.36206055 59.24023438 C71.06454651 59.24571499 66.76734997 59.2697323 62.46993542 59.29820633 C59.16448549 59.3168487 55.85911172 59.32203919 52.55361366 59.32357025 C50.96960022 59.3265945 49.38558804 59.33461538 47.80162621 59.34775543 C45.58259473 59.36484731 43.36433461 59.36292827 41.14526367 59.35644531 C39.25235847 59.36191376 39.25235847 59.36191376 37.32121277 59.36749268 C33.73698647 58.97089751 31.87101977 58.13408789 29 56 C27.69799805 54.25415039 27.69799805 54.25415039 26.76171875 52.34765625 C26.41689453 51.65349609 26.07207031 50.95933594 25.71679688 50.24414062 C25.20729492 49.16422852 25.20729492 49.16422852 24.6875 48.0625 C24.32849609 47.34642578 23.96949219 46.63035156 23.59960938 45.89257812 C21.78967726 42.1727367 21 40.27759642 21 36 C20.40219727 35.9378833 19.80439453 35.8757666 19.18847656 35.81176758 C16.05303213 34.64874295 15.50102268 32.94838488 13.984375 30.01171875 C13.45585937 28.99529297 12.92734375 27.97886719 12.3828125 26.93164062 C11.84398437 25.86107422 11.30515625 24.79050781 10.75 23.6875 C10.19570312 22.62853516 9.64140625 21.56957031 9.0703125 20.47851562 C5 12.54341133 5 12.54341133 5 8 C3.68 7.67 2.36 7.34 1 7 C0.67 4.69 0.34 2.38 0 0 Z " fill="#F7AB7E" transform="translate(234,384)"/>
<path d="M0 0 C1.54605151 -0.01656484 3.09202626 -0.04386255 4.63769531 -0.08203125 C6.87474996 -0.13693123 9.11001787 -0.15868851 11.34765625 -0.17333984 C12.03427338 -0.19600922 12.7208905 -0.21867859 13.42831421 -0.24203491 C17.23355418 -0.22536619 18.81179318 0.23861653 21.80200195 2.66430664 C23.45707162 4.73450805 24.80000538 6.46688476 25.90625 8.84619141 C26.20966309 9.47960449 26.51307617 10.11301758 26.82568359 10.765625 C27.289021 11.76650146 27.289021 11.76650146 27.76171875 12.78759766 C30.86815573 19.24056135 34.2053071 25.44299161 37.80859375 31.63525391 C39.85167045 35.15292411 41.80958883 38.71468226 43.76660156 42.28076172 C48.13058392 50.30399593 48.13058392 50.30399593 53.07421875 57.97509766 C55.87707587 62.0102454 58.10229885 66.28986708 60.32421875 70.66259766 C60.68273926 71.35756348 61.04125977 72.0525293 61.41064453 72.76855469 C63.15943983 76.28066875 63.94921875 78.35537699 63.94921875 82.35009766 C64.54734375 82.43259766 65.14546875 82.51509766 65.76171875 82.60009766 C68.64390594 83.58827612 69.42592031 84.7387289 70.94921875 87.35009766 C71.31506929 89.00992966 71.65273405 90.67648309 71.94921875 92.35009766 C72.51424103 92.33756958 73.07926331 92.3250415 73.66140747 92.31213379 C79.66613827 92.17947577 85.6709369 92.05026382 91.67578125 91.92285156 C93.90203643 91.87519179 96.1282744 91.82671952 98.35449219 91.77734375 C105.88574416 91.61066292 113.41704426 91.46797297 120.94921875 91.35009766 C122.52648743 91.32351074 122.52648743 91.32351074 124.13562012 91.29638672 C127.15422184 91.25022389 130.17256742 91.21940706 133.19140625 91.19384766 C134.09045685 91.17898315 134.98950745 91.16411865 135.915802 91.14880371 C140.64892475 91.12723353 144.54593675 91.38253796 148.94921875 93.35009766 C152.30028427 96.76746123 154.21410941 100.58646292 156.19921875 104.91259766 C156.72 106.02763672 157.24078125 107.14267578 157.77734375 108.29150391 C158.94921875 111.35009766 158.94921875 111.35009766 158.94921875 115.35009766 C159.55588379 115.42486328 160.16254883 115.49962891 160.78759766 115.57666016 C163.74494266 116.63481116 164.16562067 117.93878218 165.53515625 120.72509766 C165.99148438 121.62873047 166.4478125 122.53236328 166.91796875 123.46337891 C167.38203125 124.41599609 167.84609375 125.36861328 168.32421875 126.35009766 C171.46343199 132.69059898 174.64014637 138.6621544 178.83447266 144.37744141 C179.94921875 146.35009766 179.94921875 146.35009766 179.94921875 150.35009766 C87.21921875 150.35009766 -5.51078125 150.35009766 -101.05078125 150.35009766 C-100.28076898 146.50003629 -99.72466705 144.34233192 -97.98828125 141.03759766 C-97.44494141 139.99152344 -97.44494141 139.99152344 -96.890625 138.92431641 C-96.61347656 138.40482422 -96.33632812 137.88533203 -96.05078125 137.35009766 C-95.06078125 137.35009766 -94.07078125 137.35009766 -93.05078125 137.35009766 C-92.99535156 136.58310547 -92.93992187 135.81611328 -92.8828125 135.02587891 C-91.68723249 129.74399725 -89.2491452 125.30921362 -86.73828125 120.53759766 C-86.00834961 119.08836914 -86.00834961 119.08836914 -85.26367188 117.60986328 C-84.78478516 116.69269531 -84.30589844 115.77552734 -83.8125 114.83056641 C-83.37897217 113.99420654 -82.94544434 113.15784668 -82.4987793 112.29614258 C-81.05078125 110.35009766 -81.05078125 110.35009766 -78.87817383 109.57006836 C-78.27513428 109.49747803 -77.67209473 109.4248877 -77.05078125 109.35009766 C-77.00953125 108.38072266 -76.96828125 107.41134766 -76.92578125 106.41259766 C-76.21935215 101.33254133 -73.35404983 97.17925974 -70.05078125 93.35009766 C-67.0716174 92.35704304 -65.11617503 92.22343822 -62.00708008 92.22070312 C-60.97782913 92.21755096 -59.94857819 92.2143988 -58.88813782 92.21115112 C-57.77263046 92.21317535 -56.65712311 92.21519958 -55.5078125 92.21728516 C-54.35141769 92.21632843 -53.19502289 92.2153717 -52.00358582 92.21438599 C-49.54641669 92.21370439 -47.08924576 92.21555725 -44.63208008 92.21972656 C-40.92329693 92.22501213 -37.21463842 92.21981389 -33.50585938 92.21337891 C-21.3163468 92.21029537 -9.20201703 92.3174014 2.94921875 93.35009766 C2.61921875 91.37009766 2.28921875 89.39009766 1.94921875 87.35009766 C1.04163818 87.24387085 1.04163818 87.24387085 0.11572266 87.13549805 C-2.89731159 86.04321372 -3.32458628 84.6314423 -4.71484375 81.78369141 C-5.19236084 80.83067139 -5.66987793 79.87765137 -6.16186523 78.89575195 C-6.66145752 77.87006104 -7.1610498 76.84437012 -7.67578125 75.78759766 C-11.33623147 68.5021918 -15.06628281 61.39118813 -19.48828125 54.53759766 C-29.05078125 39.64317696 -29.05078125 39.64317696 -29.05078125 33.35009766 C-30.04078125 33.35009766 -31.03078125 33.35009766 -32.05078125 33.35009766 C-32.82229585 26.52586733 -30.32843843 22.50096609 -26.80078125 16.78759766 C-26.06408203 15.55106445 -26.06408203 15.55106445 -25.3125 14.28955078 C-23.91614418 11.96042927 -22.48988831 9.65298136 -21.05078125 7.35009766 C-20.67244141 6.72635254 -20.29410156 6.10260742 -19.90429688 5.45996094 C-15.47674007 -1.60937142 -7.5255911 0.05909314 0 0 Z " fill="#242434" transform="translate(157.05078125,35.64990234375)"/>
</svg>
